<svg version="1.1" id="Layer_1" xmlns="http://www.w3.org/2000/svg" xmlns:xlink="http://www.w3.org/1999/xlink" x="0px" y="0px"
	 width="100%" viewBox="0 0 200 200" enable-background="new 0 0 200 200" xml:space="preserve">
<path fill="#0C4441" opacity="1.000000" stroke="none" 
	d="
M116.000000,1.000000 
	C144.313232,1.000000 172.626450,1.000000 200.969849,1.000000 
	C200.969849,67.599236 200.969849,134.198486 200.969849,200.898865 
	C134.448196,200.898865 67.896187,200.898865 1.000000,200.898865 
	C1.000000,157.313034 1.000000,113.625175 1.311465,69.302612 
	C7.287118,54.033154 16.316162,41.952271 29.138432,32.847034 
	C49.302029,18.528633 71.478752,14.742446 95.470749,20.219830 
	C97.067451,20.584356 99.649406,19.862179 100.735565,18.686726 
	C106.017685,12.970392 110.946259,6.927366 116.000000,1.000000 
M91.006973,53.738373 
	C91.006729,54.464005 91.006477,55.189636 90.476524,56.137039 
	C90.228348,56.424656 89.980171,56.712269 88.976768,57.081604 
	C87.927567,59.789623 86.878365,62.497643 85.829170,65.205658 
	C85.417435,65.190346 85.005707,65.175026 84.593971,65.159706 
	C84.593971,62.338535 84.465599,59.509949 84.627975,56.698151 
	C84.811760,53.515888 82.864029,51.705616 79.834679,52.232304 
	C78.097328,52.534359 76.270584,52.513290 74.500526,52.393902 
	C71.417847,52.185978 70.426544,53.183041 71.773834,56.880081 
	C71.605301,59.248520 71.436768,61.616959 70.577759,64.055748 
	C67.177422,65.497444 65.610153,64.469109 65.986595,60.701645 
	C66.084038,59.726452 66.385918,58.465469 65.925133,57.796158 
	C64.322807,55.468681 62.659599,51.831463 60.585300,51.512012 
	C57.796402,51.082516 53.276333,51.427891 53.068600,56.951752 
	C52.819504,57.299095 52.570408,57.646439 51.585377,58.148663 
	C49.340229,60.037460 49.164104,61.697189 52.386894,63.653858 
	C52.300716,64.101105 52.214539,64.548347 51.491554,65.114014 
	C50.994015,65.742874 50.496471,66.371742 49.325775,67.160461 
	C48.592678,68.021965 47.627731,68.774666 47.164082,69.762627 
	C44.136181,76.214539 42.070702,82.503174 42.664318,90.186539 
	C43.567478,101.876434 41.848095,113.744728 42.165462,125.512360 
	C42.388535,133.783524 43.759281,141.947403 52.790817,146.400131 
	C58.222214,149.077942 59.780617,155.393036 59.664680,160.533722 
	C59.474194,168.980011 61.684689,176.263245 65.265610,183.668304 
	C69.203667,191.811920 81.694878,193.930618 86.749588,186.443527 
	C89.558975,182.282257 91.622894,177.336929 92.833778,172.450348 
	C94.255424,166.713272 94.209641,160.626282 95.208755,154.760635 
	C95.443062,153.385040 97.335632,151.281845 98.435249,151.300339 
	C100.085159,151.328094 101.900574,152.722641 103.262543,153.958221 
	C103.948662,154.580658 103.825775,156.126907 104.010460,157.264877 
	C105.333229,165.415329 106.191414,173.681183 108.195686,181.659531 
	C108.903999,184.479034 111.982819,187.821442 114.718666,188.752289 
	C118.868042,190.164078 123.659645,189.746765 128.184967,189.979156 
	C132.957779,190.224243 134.989578,187.177643 135.896667,183.085190 
	C136.179810,181.807785 135.975372,180.429092 136.071106,179.102310 
	C136.814865,168.795547 138.812119,159.762863 149.591599,154.244308 
	C156.807114,150.550323 160.187820,137.301804 158.427200,130.677017 
	C157.082062,125.615562 155.923706,120.220581 156.262634,115.078117 
	C156.579224,110.275017 156.858093,106.347511 152.557892,103.170181 
	C151.577377,102.445694 151.176804,100.466698 151.119049,99.040421 
	C150.786896,90.836845 147.500610,83.661308 143.804733,76.563301 
	C143.040726,75.095978 142.695694,73.249695 142.695374,71.577957 
	C142.694641,67.733559 138.022064,63.724113 133.337952,64.075012 
	C132.858597,63.479710 132.379242,62.884407 131.611404,61.794811 
	C131.286667,61.604649 130.961929,61.414486 130.630417,61.163570 
	C130.630417,61.163570 130.621567,61.233086 130.831024,60.614025 
	C130.640274,59.604004 130.795990,58.053452 130.201920,57.672665 
	C126.643333,55.391693 123.110535,52.827599 119.188194,51.419174 
	C114.400269,49.699928 112.739021,51.239708 111.972694,56.318413 
	C111.251801,61.095989 109.833496,65.470398 105.160255,67.408180 
	C103.936203,65.695915 102.970924,64.345634 102.106026,62.302227 
	C101.738686,60.871471 101.371346,59.440716 100.702919,57.609791 
	C100.421936,57.207733 100.140961,56.805672 99.920616,55.554512 
	C99.347725,51.814468 93.961929,48.986538 90.947357,50.938751 
	C90.647247,51.133095 90.975990,52.298492 91.006973,53.738373 
M135.506454,61.461903 
	C135.506454,61.461903 135.530304,61.516010 135.506454,61.461903 
z"/>
<path fill="#73DDD7" opacity="1.000000" stroke="none" 
	d="
M115.531342,1.000000 
	C110.946259,6.927366 106.017685,12.970392 100.735565,18.686726 
	C99.649406,19.862179 97.067451,20.584356 95.470749,20.219830 
	C71.478752,14.742446 49.302029,18.528633 29.138432,32.847034 
	C16.316162,41.952271 7.287118,54.033154 1.311465,68.833954 
	C1.000000,46.387646 1.000000,23.775290 1.000000,1.000000 
	C39.020741,1.000000 77.041710,1.000000 115.531342,1.000000 
z"/>
<path fill="#0B423D" opacity="1.000000" stroke="none" 
	d="
M102.005646,62.995361 
	C102.970924,64.345634 103.936203,65.695915 105.160255,67.408180 
	C109.833496,65.470398 111.251801,61.095989 111.972694,56.318413 
	C112.739021,51.239708 114.400269,49.699928 119.188194,51.419174 
	C123.110535,52.827599 126.643333,55.391693 130.201920,57.672665 
	C130.795990,58.053452 130.640274,59.604004 130.400696,60.825821 
	C125.206772,59.063427 120.443184,57.089245 114.648499,54.687737 
	C114.648499,58.555161 114.645683,60.670700 114.648918,62.786232 
	C114.700539,96.529213 114.752922,130.272202 114.694016,164.115875 
	C114.432808,164.517288 114.499161,164.772980 114.864349,165.242828 
	C115.019608,165.854568 115.092476,166.207138 115.016846,166.911774 
	C110.151390,174.474899 111.733376,177.140259 120.104279,182.064728 
	C121.740097,183.027054 126.367607,181.950180 127.333176,180.396042 
	C129.617813,176.718781 131.544617,172.236755 131.743744,167.992249 
	C131.998123,162.570297 133.268707,158.305023 137.529037,154.942307 
	C140.130142,152.889236 142.551254,150.608139 145.151871,148.554398 
	C150.822098,144.076508 151.648544,141.091904 148.998489,133.672211 
	C149.004257,132.907440 149.010330,132.470444 149.004562,132.021454 
	C148.992722,132.009460 149.025772,132.009872 149.342346,131.849243 
	C153.157455,128.304123 152.866074,122.362030 148.980530,119.555382 
	C148.502411,112.063957 149.201813,104.750000 147.519913,98.032234 
	C144.569885,86.249359 141.762085,74.172424 133.884995,64.281281 
	C138.022064,63.724113 142.694641,67.733559 142.695374,71.577957 
	C142.695694,73.249695 143.040726,75.095978 143.804733,76.563301 
	C147.500610,83.661308 150.786896,90.836845 151.119049,99.040421 
	C151.176804,100.466698 151.577377,102.445694 152.557892,103.170181 
	C156.858093,106.347511 156.579224,110.275017 156.262634,115.078117 
	C155.923706,120.220581 157.082062,125.615562 158.427200,130.677017 
	C160.187820,137.301804 156.807114,150.550323 149.591599,154.244308 
	C138.812119,159.762863 136.814865,168.795547 136.071106,179.102310 
	C135.975372,180.429092 136.179810,181.807785 135.896667,183.085190 
	C134.989578,187.177643 132.957779,190.224243 128.184967,189.979156 
	C123.659645,189.746765 118.868042,190.164078 114.718666,188.752289 
	C111.982819,187.821442 108.903999,184.479034 108.195686,181.659531 
	C106.191414,173.681183 105.333229,165.415329 104.010460,157.264877 
	C103.825775,156.126907 103.948662,154.580658 103.262543,153.958221 
	C101.900574,152.722641 100.085159,151.328094 98.435249,151.300339 
	C97.335632,151.281845 95.443062,153.385040 95.208755,154.760635 
	C94.209641,160.626282 94.255424,166.713272 92.833778,172.450348 
	C91.622894,177.336929 89.558975,182.282257 86.749588,186.443527 
	C81.694878,193.930618 69.203667,191.811920 65.265610,183.668304 
	C61.684689,176.263245 59.474194,168.980011 59.664680,160.533722 
	C59.780617,155.393036 58.222214,149.077942 52.790817,146.400131 
	C43.759281,141.947403 42.388535,133.783524 42.165462,125.512360 
	C41.848095,113.744728 43.567478,101.876434 42.664318,90.186539 
	C42.070702,82.503174 44.136181,76.214539 47.164082,69.762627 
	C47.627731,68.774666 48.592678,68.021965 49.662727,67.548683 
	C50.052204,72.782349 50.104733,77.627792 50.281616,82.876198 
	C50.324009,86.363014 50.242035,89.446869 50.085377,92.933601 
	C50.049892,98.593315 50.019550,103.852768 50.216385,109.103691 
	C50.240963,109.759354 51.467468,110.369965 52.262123,111.326485 
	C52.302296,112.100052 52.217411,112.548592 51.776352,113.085770 
	C51.063000,113.500999 50.344906,113.921188 50.401756,114.140404 
	C51.627987,118.868385 49.057507,124.942009 55.206257,127.942253 
	C53.951702,133.903229 57.115089,138.518295 59.882946,143.249649 
	C60.046284,143.528870 60.300217,143.783249 60.567562,143.969360 
	C67.211845,148.594971 66.488388,155.880219 66.425674,162.412796 
	C66.389351,166.196915 66.897903,167.334808 70.711693,166.729736 
	C71.307961,166.702911 71.654305,166.789352 71.998322,167.258606 
	C71.304825,169.566879 70.613647,171.492355 69.808754,173.734619 
	C70.873825,174.284775 72.116539,175.144226 73.492973,175.598648 
	C78.478439,177.244568 80.530846,173.347031 83.137230,170.407700 
	C84.517693,168.850906 85.550903,167.513672 83.158401,165.760834 
	C83.193619,165.336258 83.251480,165.171982 83.674019,164.971832 
	C84.936913,163.351395 86.327141,161.856293 86.634895,160.164307 
	C87.363327,156.159683 87.577568,152.061554 88.144409,147.697937 
	C89.012482,146.518448 89.598480,145.460022 90.480942,144.794952 
	C97.419060,139.566086 98.089043,131.505890 100.280350,123.735809 
	C101.038612,121.429459 101.917793,119.391937 101.933685,117.347710 
	C102.051834,102.147331 102.025558,86.945503 101.959244,71.744499 
	C101.952347,70.162827 101.389122,68.583588 100.997162,66.672295 
	C100.966003,65.892212 101.021706,65.443047 101.282196,64.796074 
	C101.659874,64.063957 101.832756,63.529659 102.005646,62.995361 
z"/>
<path fill="#F6F9F9" opacity="1.000000" stroke="none" 
	d="
M50.160065,92.530724 
	C50.242035,89.446869 50.324009,86.363014 50.752682,82.835236 
	C51.547264,81.644043 52.378994,80.897842 52.381062,80.149353 
	C52.395027,75.098373 52.233257,70.046906 52.128365,64.995598 
	C52.214539,64.548347 52.300716,64.101105 52.385071,62.929298 
	C52.362602,60.801090 52.341957,59.397434 52.321312,57.993782 
	C52.570408,57.646439 52.819504,57.299095 53.551414,56.618626 
	C56.978397,56.285500 59.922558,56.285500 63.410007,56.285500 
	C63.410007,58.333488 63.410629,60.108002 63.409904,61.882515 
	C63.404236,75.829384 63.381069,89.776268 63.400166,103.723106 
	C63.408951,110.139984 64.594200,111.169823 71.268234,110.616486 
	C71.268234,95.083885 71.268234,79.534637 71.268234,63.985397 
	C71.436768,61.616959 71.605301,59.248520 72.373901,56.481300 
	C75.825951,56.082523 78.677933,56.082523 82.033722,56.082523 
	C82.033722,59.882519 82.033722,62.944214 81.930038,66.458603 
	C81.891838,70.939171 81.957321,74.967056 81.933929,79.325722 
	C81.905029,80.105255 81.964996,80.553993 81.924255,81.459206 
	C81.890770,86.609352 81.957985,91.303032 81.933624,96.449860 
	C81.895409,100.602592 81.948792,104.302170 81.904602,108.409393 
	C83.070015,109.516510 84.980621,111.111877 85.478004,110.752312 
	C87.162621,109.534515 88.346855,107.624519 89.798996,105.517372 
	C89.827797,89.037102 89.779892,73.018494 89.731995,56.999882 
	C89.980171,56.712269 90.228348,56.424656 91.149261,56.118916 
	C93.210770,56.037849 94.599541,55.974907 96.372009,55.991890 
	C97.790451,56.182411 98.825218,56.293015 99.859978,56.403618 
	C100.140961,56.805672 100.421936,57.207733 100.786140,58.242592 
	C100.938713,60.914890 101.008057,62.954391 101.077408,64.993889 
	C101.021706,65.443047 100.966003,65.892212 100.904274,67.132889 
	C100.887291,82.486435 101.100822,97.054298 100.722244,111.606758 
	C100.615128,115.724358 98.778145,119.796967 97.439590,124.044418 
	C93.710144,128.323196 88.723961,129.398178 83.684860,130.953491 
	C83.360619,131.340424 83.310394,131.681580 83.191940,132.485077 
	C83.186943,138.962433 83.250183,144.977448 83.225418,151.450363 
	C83.194717,156.274750 83.252029,160.641220 83.309341,165.007690 
	C83.251480,165.171982 83.193619,165.336258 82.810562,165.993988 
	C78.990456,166.616882 75.495544,166.746353 72.000641,166.875809 
	C71.654305,166.789352 71.307961,166.702911 70.562881,166.291641 
	C70.164146,154.261902 70.164146,142.556976 70.164146,130.664291 
	C59.389118,128.961212 52.369270,124.244591 52.132523,112.997124 
	C52.217411,112.548592 52.302296,112.100052 52.393772,110.874496 
	C52.420597,105.676247 52.631218,101.243050 52.354488,96.840492 
	C52.261662,95.363762 50.927071,93.965080 50.160065,92.530724 
z"/>
<path fill="#FBFDFD" opacity="1.000000" stroke="none" 
	d="
M115.165337,166.559692 
	C115.092476,166.207138 115.019608,165.854568 114.945801,165.002533 
	C114.898277,164.340439 114.851700,164.177811 114.805130,164.015182 
	C114.752922,130.272202 114.700539,96.529213 114.648918,62.786232 
	C114.645683,60.670700 114.648499,58.555161 114.648499,54.687737 
	C120.443184,57.089245 125.206772,59.063427 130.295959,61.135349 
	C130.621567,61.233086 130.630417,61.163570 130.756561,61.459076 
	C131.221756,61.932755 131.560822,62.110928 131.899887,62.289104 
	C132.379242,62.884407 132.858597,63.479710 133.611481,64.178146 
	C141.762085,74.172424 144.569885,86.249359 147.519913,98.032234 
	C149.201813,104.750000 148.502411,112.063957 148.899002,119.928024 
	C148.992325,121.501831 149.061935,122.257088 149.057388,123.379059 
	C149.046951,124.487495 149.110687,125.229210 149.099609,126.348473 
	C149.083389,127.489784 149.141968,128.253540 149.132416,129.256195 
	C149.064285,129.495087 149.189392,129.975937 149.106491,130.308136 
	C149.024307,131.096863 149.025040,131.553360 149.025772,132.009872 
	C149.025772,132.009872 148.992722,132.009460 148.567810,132.134323 
	C145.815857,132.279175 143.483917,132.209259 141.162659,132.335571 
	C133.379623,132.759109 128.955734,137.313293 128.865555,145.050629 
	C128.823013,148.699921 128.991714,152.351669 128.968918,156.449066 
	C128.873138,159.956726 128.873138,163.017624 128.873138,166.559692 
	C123.945190,166.559692 119.555267,166.559692 115.165337,166.559692 
z"/>
<path fill="#0E3F3B" opacity="1.000000" stroke="none" 
	d="
M70.922997,64.020569 
	C71.268234,79.534637 71.268234,95.083885 71.268234,110.616486 
	C64.594200,111.169823 63.408951,110.139984 63.400166,103.723106 
	C63.381069,89.776268 63.404236,75.829384 63.409904,61.882515 
	C63.410629,60.108002 63.410007,58.333488 63.410007,56.285500 
	C59.922558,56.285500 56.978397,56.285500 53.596718,56.405945 
	C53.276333,51.427891 57.796402,51.082516 60.585300,51.512012 
	C62.659599,51.831463 64.322807,55.468681 65.925133,57.796158 
	C66.385918,58.465469 66.084038,59.726452 65.986595,60.701645 
	C65.610153,64.469109 67.177422,65.497444 70.922997,64.020569 
z"/>
<path fill="#0E3F3B" opacity="1.000000" stroke="none" 
	d="
M82.033722,66.005913 
	C82.033722,62.944214 82.033722,59.882519 82.033722,56.082523 
	C78.677933,56.082523 75.825951,56.082523 72.526093,56.058540 
	C70.426544,53.183041 71.417847,52.185978 74.500526,52.393902 
	C76.270584,52.513290 78.097328,52.534359 79.834679,52.232304 
	C82.864029,51.705616 84.811760,53.515888 84.627975,56.698151 
	C84.465599,59.509949 84.593971,62.338535 84.593971,65.159706 
	C85.005707,65.175026 85.417435,65.190346 85.829170,65.205658 
	C86.878365,62.497643 87.927567,59.789623 89.354378,57.040741 
	C89.779892,73.018494 89.827797,89.037102 89.438110,105.547012 
	C86.667740,106.692795 84.334953,107.347275 82.002167,108.001755 
	C81.948792,104.302170 81.895409,100.602592 82.183029,96.122406 
	C82.357666,90.562111 82.191315,85.782425 82.024963,81.002739 
	C81.964996,80.553993 81.905029,80.105255 82.182419,79.001801 
	C82.357750,74.233368 82.195732,70.119644 82.033722,66.005913 
z"/>
<path fill="#0B413B" opacity="1.000000" stroke="none" 
	d="
M99.890297,55.979065 
	C98.825218,56.293015 97.790451,56.182411 96.150940,55.745567 
	C94.035088,54.617287 92.523979,53.815250 91.012878,53.013210 
	C90.975990,52.298492 90.647247,51.133095 90.947357,50.938751 
	C93.961929,48.986538 99.347725,51.814468 99.890297,55.979065 
z"/>
<path fill="#0E3F3B" opacity="1.000000" stroke="none" 
	d="
M51.809959,65.054810 
	C52.233257,70.046906 52.395027,75.098373 52.381062,80.149353 
	C52.378994,80.897842 51.547264,81.644043 50.628319,82.432274 
	C50.104733,77.627792 50.052204,72.782349 49.999302,67.468758 
	C50.496471,66.371742 50.994015,65.742874 51.809959,65.054810 
z"/>
<path fill="#1A433F" opacity="1.000000" stroke="none" 
	d="
M91.009926,53.375793 
	C92.523979,53.815250 94.035088,54.617287 95.767258,55.665649 
	C94.599541,55.974907 93.210770,56.037849 91.414108,56.008030 
	C91.006477,55.189636 91.006729,54.464005 91.009926,53.375793 
z"/>
<path fill="#16403C" opacity="1.000000" stroke="none" 
	d="
M101.282196,64.796074 
	C101.008057,62.954391 100.938713,60.914890 100.936684,58.442677 
	C101.371346,59.440716 101.738686,60.871471 102.055832,62.648792 
	C101.832756,63.529659 101.659874,64.063957 101.282196,64.796074 
z"/>
<path fill="#0E3F3B" opacity="1.000000" stroke="none" 
	d="
M51.953346,58.071220 
	C52.341957,59.397434 52.362602,60.801090 52.253403,62.607254 
	C49.164104,61.697189 49.340229,60.037460 51.953346,58.071220 
z"/>
<path fill="#0B423D" opacity="1.000000" stroke="none" 
	d="
M131.755646,62.041958 
	C131.560822,62.110928 131.221756,61.932755 130.759949,61.489452 
	C130.961929,61.414486 131.286667,61.604649 131.755646,62.041958 
z"/>
<path fill="#0B423D" opacity="1.000000" stroke="none" 
	d="
M135.518372,61.488956 
	C135.530304,61.516010 135.506454,61.461903 135.518372,61.488956 
z"/>
<path fill="#0A3F3B" opacity="1.000000" stroke="none" 
	d="
M115.016846,166.911774 
	C119.555267,166.559692 123.945190,166.559692 128.873138,166.559692 
	C128.873138,163.017624 128.873138,159.956726 129.311432,156.384689 
	C133.958481,151.616928 138.191376,147.383621 142.350922,143.079437 
	C143.001160,142.406586 143.916595,141.183578 143.695007,140.600372 
	C141.653610,135.227524 145.941391,135.140182 148.998779,134.000000 
	C151.648544,141.091904 150.822098,144.076508 145.151871,148.554398 
	C142.551254,150.608139 140.130142,152.889236 137.529037,154.942307 
	C133.268707,158.305023 131.998123,162.570297 131.743744,167.992249 
	C131.544617,172.236755 129.617813,176.718781 127.333176,180.396042 
	C126.367607,181.950180 121.740097,183.027054 120.104279,182.064728 
	C111.733376,177.140259 110.151390,174.474899 115.016846,166.911774 
z"/>
<path fill="#0F3F3B" opacity="1.000000" stroke="none" 
	d="
M51.776352,113.085770 
	C52.369270,124.244591 59.389118,128.961212 70.164146,130.664291 
	C70.164146,142.556976 70.164146,154.261902 70.312958,166.404907 
	C66.897903,167.334808 66.389351,166.196915 66.425674,162.412796 
	C66.488388,155.880219 67.211845,148.594971 60.567562,143.969360 
	C60.300217,143.783249 60.046284,143.528870 59.882946,143.249649 
	C57.115089,138.518295 53.951702,133.903229 55.206257,127.942253 
	C49.057507,124.942009 51.627987,118.868385 50.401756,114.140404 
	C50.344906,113.921188 51.063000,113.500999 51.776352,113.085770 
z"/>
<path fill="#0B3C39" opacity="1.000000" stroke="none" 
	d="
M83.313416,150.992447 
	C83.250183,144.977448 83.186943,138.962433 83.381378,132.351547 
	C83.865936,131.518387 83.972549,131.235748 83.958893,130.907715 
	C88.723961,129.398178 93.710144,128.323196 97.816872,124.072433 
	C98.993240,123.964661 99.497383,123.983093 100.001526,124.001526 
	C98.089043,131.505890 97.419060,139.566086 90.480942,144.794952 
	C89.598480,145.460022 89.012482,146.518448 87.823090,147.775238 
	C86.009163,149.101395 84.661285,150.046921 83.313416,150.992447 
z"/>
<path fill="#0C3C38" opacity="1.000000" stroke="none" 
	d="
M148.998489,133.672211 
	C145.941391,135.140182 141.653610,135.227524 143.695007,140.600372 
	C143.916595,141.183578 143.001160,142.406586 142.350922,143.079437 
	C138.191376,147.383621 133.958481,151.616928 129.407211,155.937927 
	C128.991714,152.351669 128.823013,148.699921 128.865555,145.050629 
	C128.955734,137.313293 133.379623,132.759109 141.162659,132.335571 
	C143.483917,132.209259 145.815857,132.279175 148.579651,132.146332 
	C149.010330,132.470444 149.004257,132.907440 148.998489,133.672211 
z"/>
<path fill="#0F3F3B" opacity="1.000000" stroke="none" 
	d="
M71.998322,167.258621 
	C75.495544,166.746353 78.990456,166.616882 82.833206,166.254272 
	C85.550903,167.513672 84.517693,168.850906 83.137230,170.407700 
	C80.530846,173.347031 78.478439,177.244568 73.492973,175.598648 
	C72.116539,175.144226 70.873825,174.284775 69.808754,173.734619 
	C70.613647,171.492355 71.304825,169.566879 71.998322,167.258621 
z"/>
<path fill="#16403C" opacity="1.000000" stroke="none" 
	d="
M100.280350,123.735809 
	C99.497383,123.983093 98.993240,123.964661 98.111816,123.918221 
	C98.778145,119.796967 100.615128,115.724358 100.722244,111.606758 
	C101.100822,97.054298 100.887291,82.486435 100.991142,67.463821 
	C101.389122,68.583588 101.952347,70.162827 101.959244,71.744499 
	C102.025558,86.945503 102.051834,102.147331 101.933685,117.347710 
	C101.917793,119.391937 101.038612,121.429459 100.280350,123.735809 
z"/>
<path fill="#0F3F3B" opacity="1.000000" stroke="none" 
	d="
M83.225410,151.450363 
	C84.661285,150.046921 86.009163,149.101395 87.678360,148.078537 
	C87.577568,152.061554 87.363327,156.159683 86.634895,160.164307 
	C86.327141,161.856293 84.936913,163.351395 83.674026,164.971832 
	C83.252029,160.641220 83.194717,156.274750 83.225410,151.450363 
z"/>
<path fill="#0F3F3B" opacity="1.000000" stroke="none" 
	d="
M50.085381,92.933601 
	C50.927071,93.965080 52.261662,95.363762 52.354488,96.840492 
	C52.631218,101.243050 52.420597,105.676247 52.268707,110.549461 
	C51.467468,110.369965 50.240963,109.759354 50.216385,109.103691 
	C50.019550,103.852768 50.049892,98.593315 50.085381,92.933601 
z"/>
<path fill="#0A3F3B" opacity="1.000000" stroke="none" 
	d="
M149.342346,131.849243 
	C149.025040,131.553360 149.024307,131.096863 149.217133,130.207993 
	C149.557190,129.475174 149.487152,129.222397 149.200546,129.017303 
	C149.141968,128.253540 149.083389,127.489784 149.286285,126.135330 
	C149.409012,124.700531 149.270279,123.856430 149.131546,123.012337 
	C149.061935,122.257088 148.992325,121.501831 149.004272,120.373947 
	C152.866074,122.362030 153.157455,128.304123 149.342346,131.849243 
z"/>
<path fill="#0C4441" opacity="1.000000" stroke="none" 
	d="
M114.694016,164.115875 
	C114.851700,164.177811 114.898277,164.340439 114.863411,164.743347 
	C114.499161,164.772980 114.432808,164.517288 114.694016,164.115875 
z"/>
<path fill="#1A433F" opacity="1.000000" stroke="none" 
	d="
M81.904602,108.409393 
	C84.334953,107.347275 86.667740,106.692795 89.361412,106.008675 
	C88.346855,107.624519 87.162621,109.534515 85.478004,110.752312 
	C84.980621,111.111877 83.070015,109.516510 81.904602,108.409393 
z"/>
<path fill="#1A433F" opacity="1.000000" stroke="none" 
	d="
M81.924255,81.459206 
	C82.191315,85.782425 82.357666,90.562111 82.274612,95.669250 
	C81.957985,91.303032 81.890770,86.609352 81.924255,81.459206 
z"/>
<path fill="#1A433F" opacity="1.000000" stroke="none" 
	d="
M81.930038,66.458603 
	C82.195732,70.119644 82.357750,74.233368 82.271286,78.671021 
	C81.957321,74.967056 81.891838,70.939171 81.930038,66.458603 
z"/>
<path fill="#355753" opacity="1.000000" stroke="none" 
	d="
M83.684860,130.953491 
	C83.972549,131.235748 83.865936,131.518387 83.449615,131.889191 
	C83.310394,131.681580 83.360619,131.340424 83.684860,130.953491 
z"/>
<path fill="#0B423D" opacity="1.000000" stroke="none" 
	d="
M149.057388,123.379059 
	C149.270279,123.856430 149.409012,124.700531 149.361084,125.757767 
	C149.110687,125.229210 149.046951,124.487495 149.057388,123.379059 
z"/>
<path fill="#0B423D" opacity="1.000000" stroke="none" 
	d="
M149.132416,129.256195 
	C149.487152,129.222397 149.557190,129.475174 149.300049,129.875793 
	C149.189392,129.975937 149.064285,129.495087 149.132416,129.256195 
z"/>
</svg>